<mxfile host="app.diagrams.net" modified="2022-08-03T06:46:29.788Z" agent="5.0 (Macintosh; Intel Mac OS X 10_15_7) AppleWebKit/537.36 (KHTML, like Gecko) Chrome/103.0.0.0 Safari/537.36" etag="B4Y9gcVV2CxUGYpzrJHV" version="20.2.0" type="github">
  <diagram id="kgpKYQtTHZ0yAKxKKP6v" name="Page-1">
    <mxGraphModel dx="815" dy="439" grid="1" gridSize="10" guides="1" tooltips="1" connect="1" arrows="1" fold="1" page="1" pageScale="1" pageWidth="850" pageHeight="1100" math="0" shadow="0">
      <root>
        <mxCell id="0" />
        <mxCell id="1" parent="0" />
        <mxCell id="fOxvv07w8od9awFYw8Ad-1" value="&lt;font style=&quot;font-size: 9px;&quot;&gt;Consume-Service&lt;/font&gt;" style="rounded=0;whiteSpace=wrap;html=1;" vertex="1" parent="1">
          <mxGeometry x="40" y="40" width="90" height="30" as="geometry" />
        </mxCell>
        <mxCell id="fOxvv07w8od9awFYw8Ad-2" value="&lt;font style=&quot;font-size: 9px;&quot;&gt;Attachment-Service&lt;/font&gt;" style="rounded=0;whiteSpace=wrap;html=1;" vertex="1" parent="1">
          <mxGeometry x="170" y="40" width="90" height="30" as="geometry" />
        </mxCell>
        <mxCell id="fOxvv07w8od9awFYw8Ad-4" value="&lt;font style=&quot;font-size: 9px;&quot;&gt;NFS&lt;/font&gt;" style="rounded=0;whiteSpace=wrap;html=1;" vertex="1" parent="1">
          <mxGeometry x="300" y="40" width="90" height="30" as="geometry" />
        </mxCell>
        <mxCell id="fOxvv07w8od9awFYw8Ad-6" value="&lt;font style=&quot;font-size: 9px;&quot;&gt;File Fortification&lt;/font&gt;" style="rounded=0;whiteSpace=wrap;html=1;" vertex="1" parent="1">
          <mxGeometry x="420" y="40" width="90" height="30" as="geometry" />
        </mxCell>
      </root>
    </mxGraphModel>
  </diagram>
</mxfile>
